<svg width="222" height="320" viewBox="0 0 222 320" fill="none" xmlns="http://www.w3.org/2000/svg">
<path d="M0 50C0 22.3858 22.3858 0 50 0H172C199.614 0 222 22.3858 222 50V270C222 297.614 199.614 320 172 320H50C22.3858 320 0 297.614 0 270V50Z" fill="#1D1B1C"/>
<path d="M26 47C26 35.9543 34.9543 27 46 27H176C187.046 27 196 35.9543 196 47V84C196 95.0457 187.046 104 176 104H46C34.9543 104 26 95.0457 26 84V47Z" fill="#5B5B5B"/>
<path d="M76.3333 149.667C76.3333 163.29 65.2897 174.333 51.6667 174.333C38.0436 174.333 27 163.29 27 149.667C27 136.044 38.0436 125 51.6667 125C65.2897 125 76.3333 136.044 76.3333 149.667Z" fill="#D4D4D2"/>
<path d="M135.667 149.667C135.667 163.29 124.623 174.333 111 174.333C97.377 174.333 86.3333 163.29 86.3333 149.667C86.3333 136.044 97.377 125 111 125C124.623 125 135.667 136.044 135.667 149.667Z" fill="#D4D4D2"/>
<path d="M195 149.667C195 163.29 183.956 174.333 170.333 174.333C156.71 174.333 145.667 163.29 145.667 149.667C145.667 136.044 156.71 125 170.333 125C183.956 125 195 136.044 195 149.667Z" fill="#FF9500"/>
<path d="M76.3333 209C76.3333 222.623 65.2897 233.667 51.6667 233.667C38.0436 233.667 27 222.623 27 209C27 195.377 38.0436 184.333 51.6667 184.333C65.2897 184.333 76.3333 195.377 76.3333 209Z" fill="#D4D4D2"/>
<path d="M135.667 209C135.667 222.623 124.623 233.667 111 233.667C97.377 233.667 86.3333 222.623 86.3333 209C86.3333 195.377 97.377 184.333 111 184.333C124.623 184.333 135.667 195.377 135.667 209Z" fill="#D4D4D2"/>
<path d="M195 209C195 222.623 183.956 233.667 170.333 233.667C156.71 233.667 145.667 222.623 145.667 209C145.667 195.377 156.71 184.333 170.333 184.333C183.956 184.333 195 195.377 195 209Z" fill="#FF9500"/>
<path d="M76.3333 268.333C76.3333 281.956 65.2897 293 51.6667 293C38.0436 293 27 281.956 27 268.333C27 254.71 38.0436 243.667 51.6667 243.667C65.2897 243.667 76.3333 254.71 76.3333 268.333Z" fill="#D4D4D2"/>
<path d="M135.667 268.333C135.667 281.956 124.623 293 111 293C97.377 293 86.3333 281.956 86.3333 268.333C86.3333 254.71 97.377 243.667 111 243.667C124.623 243.667 135.667 254.71 135.667 268.333Z" fill="#D4D4D2"/>
<path d="M195 268.333C195 281.956 183.956 293 170.333 293C156.71 293 145.667 281.956 145.667 268.333C145.667 254.71 156.71 243.667 170.333 243.667C183.956 243.667 195 254.71 195 268.333Z" fill="#FF9500"/>
</svg>
